<?xml version="1.0" standalone="no"?>
<!DOCTYPE svg PUBLIC "-//W3C//DTD SVG 20010904//EN"
 "http://www.w3.org/TR/2001/REC-SVG-20010904/DTD/svg10.dtd">
<svg version="1.0" xmlns="http://www.w3.org/2000/svg"
 width="441.000000pt" height="398.000000pt" viewBox="0 0 441.000000 398.000000"
 preserveAspectRatio="xMidYMid meet">

<g transform="translate(0.000000,398.000000) scale(0.100000,-0.100000)"
fill="#000000" stroke="none">
<path d="M1930 3790 c-47 -10 -110 -27 -140 -38 l-56 -20 -32 29 c-28 25 -41
29 -90 29 -50 0 -68 -6 -136 -45 -85 -48 -167 -108 -232 -167 -40 -37 -42 -38
-70 -23 -70 36 -141 4 -217 -97 -64 -84 -138 -208 -172 -285 -23 -51 -26 -53
-62 -53 -48 0 -94 -28 -122 -73 -29 -47 -66 -198 -82 -328 -7 -57 -14 -106
-16 -108 -2 -3 -26 17 -54 45 l-51 49 6 -107 c13 -212 89 -428 225 -637 l15
-23 -45 7 c-24 4 -62 13 -84 21 -21 7 -41 12 -43 10 -6 -7 60 -131 116 -215
64 -97 177 -215 275 -286 77 -56 75 -62 -28 -72 -36 -3 -65 -9 -65 -12 0 -9
62 -67 125 -118 130 -104 276 -184 437 -238 54 -18 102 -35 104 -38 3 -3 -24
-21 -60 -41 -37 -20 -66 -39 -66 -42 0 -11 201 -99 310 -134 l114 -38 12 -71
c47 -279 190 -496 395 -601 l87 -44 43 19 c161 73 300 218 372 391 26 60 58
175 74 263 l8 44 110 36 c115 38 302 117 310 131 3 5 -23 23 -57 42 -34 19
-63 39 -65 45 -2 6 13 14 34 18 112 20 328 127 462 227 75 56 171 139 171 148
0 4 -30 10 -67 13 -111 9 -112 12 -25 76 146 110 272 261 357 430 30 60 33 72
18 67 -32 -13 -145 -37 -150 -33 -2 3 15 36 38 73 88 143 156 320 177 459 15
96 23 215 16 215 -3 0 -27 -18 -52 -41 l-47 -41 -8 63 c-17 130 -57 304 -82
355 -30 62 -75 94 -131 94 -39 1 -39 1 -74 78 -41 90 -152 261 -204 314 -49
50 -104 67 -159 47 l-42 -15 -63 53 c-77 65 -166 126 -239 164 -85 45 -182 37
-215 -17 -6 -9 -27 -6 -85 13 -152 48 -290 65 -350 42 -15 -5 -40 -22 -54 -35
-22 -21 -27 -22 -32 -10 -3 8 -24 24 -46 36 -50 25 -125 25 -241 0z m252 -48
c18 -17 29 -34 26 -37 -3 -3 -48 -10 -99 -16 -280 -28 -531 -149 -729 -349
-103 -103 -165 -189 -227 -315 -82 -164 -114 -298 -122 -511 l-6 -161 -49 14
-49 14 6 147 c3 81 12 181 21 222 88 408 344 738 709 916 149 73 309 115 420
111 61 -2 70 -6 99 -35z m324 23 c537 -111 945 -562 1013 -1120 13 -110 14
-215 2 -248 -6 -15 -21 -27 -38 -31 -15 -4 -35 -9 -43 -11 -13 -4 -15 18 -16
153 0 134 -4 172 -27 263 -125 506 -537 866 -1051 918 -48 5 -89 11 -92 14 -3
3 -1 15 5 26 28 51 112 63 247 36z m-823 -23 c20 -20 20 -20 -54 -58 -125 -63
-219 -132 -335 -248 -125 -125 -194 -222 -265 -370 -85 -178 -129 -375 -129
-575 0 -78 -3 -102 -12 -98 -7 2 -29 10 -49 17 -47 17 -52 44 -39 197 23 262
97 476 237 687 119 180 325 368 488 448 69 33 124 33 158 0z m1277 -14 c219
-123 429 -347 548 -584 94 -188 152 -422 152 -615 l0 -100 -42 -19 c-24 -11
-47 -20 -53 -20 -6 0 -10 50 -11 128 -1 138 -19 254 -60 385 -102 322 -345
613 -644 771 -50 26 -90 52 -90 57 0 6 15 17 33 25 43 19 99 10 167 -28z
m-511 -84 c166 -30 354 -114 491 -219 59 -46 207 -195 235 -239 11 -16 14 -30
9 -35 -13 -12 -283 -191 -288 -191 -2 0 -48 44 -103 98 -80 81 -114 106 -190
145 -134 69 -220 90 -373 90 -143 1 -232 -19 -357 -79 -89 -42 -207 -135 -259
-203 -23 -31 -45 -49 -55 -47 -27 6 -289 186 -289 199 0 23 141 176 220 240
276 220 609 304 959 241z m-1301 -110 c12 -4 22 -10 22 -15 0 -4 -22 -33 -49
-64 -156 -178 -278 -425 -326 -660 -20 -97 -38 -291 -30 -322 7 -28 6 -28 -50
-1 l-45 22 0 77 c0 273 122 618 305 861 70 93 112 118 173 102z m2235 -8 c38
-16 79 -60 145 -159 150 -222 253 -533 256 -777 l1 -94 -40 -23 c-22 -12 -43
-23 -46 -23 -3 0 -9 60 -12 133 -7 133 -29 256 -68 377 -54 165 -176 377 -288
502 -46 51 -50 58 -34 67 24 14 48 13 86 -3z m-959 -286 c162 -41 324 -150
422 -282 l35 -47 164 109 164 110 25 -43 c86 -146 139 -314 156 -495 14 -145
15 -135 -22 -126 -18 4 -63 6 -100 6 l-67 -2 -11 34 c-15 46 -82 120 -138 153
-36 21 -61 28 -127 31 l-82 4 -13 50 c-6 27 -27 69 -46 94 -29 38 -32 47 -22
64 16 25 4 36 -26 22 -19 -8 -33 -6 -75 14 -105 50 -238 40 -329 -26 -23 -16
-42 -29 -42 -27 0 2 11 35 24 73 28 83 59 146 80 163 18 15 21 41 6 41 -12 0
-174 -82 -267 -134 l-61 -35 -19 21 c-46 51 -137 76 -212 58 -80 -19 -171
-114 -171 -178 0 -24 -16 -37 -55 -46 -16 -4 -42 -19 -57 -34 l-28 -26 -37 18
c-21 10 -65 21 -98 23 -111 10 -204 -51 -241 -155 -16 -46 -18 -47 -51 -44
-34 4 -34 5 -28 46 13 79 44 192 75 265 36 88 88 181 101 181 5 0 80 -47 167
-105 l157 -105 19 27 c40 58 184 189 246 225 74 43 189 84 275 97 81 13 218 5
309 -19z m-101 -210 c-39 -91 -73 -238 -73 -320 l0 -55 -89 -67 -89 -67 -21
57 c-12 31 -28 64 -36 72 -13 15 -85 192 -85 210 0 11 178 118 320 194 58 31
106 56 106 56 1 0 -14 -36 -33 -80z m-1604 -25 c-39 -116 -70 -271 -76 -387
-3 -54 -9 -98 -12 -98 -9 0 -85 52 -92 62 -14 21 19 251 53 367 27 93 69 141
120 141 l35 0 -28 -85z m3087 60 c14 -14 34 -44 44 -68 24 -56 60 -232 67
-333 l6 -81 -46 -32 c-25 -17 -48 -31 -50 -31 -2 0 -7 44 -11 98 -10 142 -55
345 -101 455 -12 29 60 23 91 -8z m-1797 -48 c22 -15 41 -31 41 -36 0 -5 -21
-22 -47 -37 -27 -15 -58 -34 -70 -41 -20 -13 -22 -12 -35 28 -8 24 -19 44 -24
46 -5 2 -17 -27 -27 -64 -10 -38 -21 -73 -25 -78 -4 -6 -50 -41 -103 -77 -225
-156 -363 -276 -289 -253 16 5 18 1 13 -37 -3 -24 -12 -47 -19 -51 -21 -12
-17 -32 12 -67 l27 -31 -34 3 c-55 5 -45 -16 13 -27 49 -9 60 -17 132 -92 43
-46 76 -83 73 -83 -4 0 -42 12 -84 26 -106 36 -191 31 -322 -20 -52 -20 -100
-35 -106 -32 -14 5 -51 128 -65 216 -5 36 -10 115 -10 177 0 102 2 112 20 118
10 3 32 -1 48 -9 l30 -15 6 40 c14 86 71 151 154 175 63 19 113 12 177 -22 44
-23 45 -23 55 -3 16 29 70 59 108 59 29 0 32 3 32 30 0 39 24 98 53 129 62 67
187 80 266 28z m631 -99 l45 -20 -103 -51 c-100 -50 -104 -51 -118 -33 -8 11
-14 30 -14 43 0 35 -17 28 -23 -10 -11 -71 -32 -101 -96 -141 -34 -21 -65 -36
-67 -33 -3 3 -2 38 2 79 6 67 10 76 44 109 88 85 216 107 330 57z m-783 -60
c-3 -8 -6 -5 -6 6 -1 11 2 17 5 13 3 -3 4 -12 1 -19z m857 5 c-31 -72 -56
-166 -62 -240 l-7 -88 -29 50 c-16 28 -41 62 -55 76 -14 15 -36 45 -49 68
l-22 41 107 54 c120 61 129 64 117 39z m69 -71 c14 -26 29 -66 32 -88 l7 -39
81 0 c70 0 90 -4 133 -27 28 -15 63 -41 78 -59 30 -36 66 -102 66 -121 0 -11
23 -14 99 -13 61 0 104 -4 111 -11 22 -22 -36 -329 -64 -340 -7 -3 -43 7 -82
22 -156 60 -240 68 -339 34 -32 -11 -60 -18 -62 -17 -2 2 4 21 13 42 9 23 14
53 11 71 -4 25 2 44 24 79 17 26 28 49 25 52 -2 3 -21 -3 -41 -12 -19 -10 -38
-15 -42 -12 -3 4 -14 2 -24 -4 -24 -12 -24 -7 2 42 19 39 22 41 55 34 19 -3
55 -15 80 -26 25 -10 49 -19 53 -19 7 0 64 111 59 114 -17 12 -115 46 -131 46
-11 0 -25 8 -32 17 -11 15 -21 0 -79 -115 -36 -73 -71 -132 -76 -132 -15 0
-12 17 7 35 10 11 12 19 6 23 -6 4 -30 38 -53 77 l-43 70 7 84 c7 91 29 188
52 234 18 35 29 28 67 -41z m-830 -39 c21 -54 37 -106 37 -116 0 -9 11 -45 25
-79 l25 -62 -25 -26 c-30 -32 -32 -44 -5 -37 22 6 23 5 14 -17 -3 -9 -16 -16
-29 -16 -21 0 -24 6 -30 63 -4 34 -11 67 -15 72 -5 6 -18 77 -29 158 -24 170
-23 157 -13 157 4 0 24 -44 45 -97z m-98 -159 l-7 -192 -57 -5 c-31 -2 -58 -3
-59 -1 -2 1 3 27 12 57 9 30 16 66 16 79 0 36 70 272 83 280 19 12 20 -12 12
-218z m-61 134 c-47 -162 -55 -188 -63 -192 -5 -3 -17 -37 -27 -76 -10 -38
-23 -70 -28 -71 -6 0 -47 -6 -91 -13 -77 -13 -81 -13 -102 7 -19 17 -23 31
-23 83 0 62 0 62 48 102 62 52 284 212 293 212 5 0 1 -24 -7 -52z m130 -225
c4 -97 3 -103 -15 -103 -18 0 -19 9 -18 193 l1 192 14 -90 c7 -49 15 -136 18
-192z m590 198 c20 -32 36 -65 36 -72 0 -8 23 -52 50 -98 30 -49 53 -101 57
-126 5 -41 5 -42 -27 -49 -18 -3 -47 -6 -66 -6 -18 0 -36 -4 -39 -10 -3 -5
-19 -10 -34 -10 l-29 0 -4 208 c-3 114 -3 210 -1 215 9 17 23 4 57 -52z m-94
-171 l0 -200 -69 0 -69 0 28 93 c16 50 38 126 50 167 25 85 46 140 54 140 4 0
6 -90 6 -200z m-40 166 c0 -13 -55 -153 -64 -165 -6 -8 -27 -57 -46 -110 l-35
-96 -42 -3 -41 -3 -31 80 c-17 44 -31 85 -31 90 0 13 65 66 180 145 88 61 110
73 110 62z m-1759 -209 c101 -62 225 -118 336 -149 l79 -22 26 -107 c30 -124
101 -282 180 -396 120 -176 320 -339 497 -404 74 -28 100 -32 188 -33 88 -1
105 2 130 20 58 43 53 112 -10 142 -31 15 -27 32 8 32 29 0 41 16 19 24 -30
11 -53 6 -83 -20 -28 -23 -31 -24 -31 -7 0 28 25 59 59 73 18 7 31 21 33 33 7
48 135 96 224 82 61 -9 100 -52 125 -140 11 -38 28 -94 36 -123 18 -59 63
-106 112 -117 44 -9 142 19 246 70 309 154 542 462 614 815 l11 56 84 23 c147
40 325 135 490 263 l29 22 -6 -80 c-15 -170 -89 -368 -208 -555 -27 -42 -49
-78 -49 -81 0 -5 124 9 151 17 26 9 24 2 -17 -68 -91 -157 -212 -285 -364
-390 -45 -30 -78 -57 -73 -60 4 -3 44 -13 88 -22 l79 -18 -44 -39 c-74 -64
-213 -155 -302 -198 -74 -36 -225 -89 -300 -105 -16 -3 -28 -9 -28 -13 0 -5
32 -29 71 -54 l70 -46 -108 -45 c-87 -36 -231 -87 -249 -87 -1 0 0 53 3 118
l6 117 -87 22 c-100 26 -239 90 -350 163 l-78 51 -77 -50 c-104 -68 -249 -136
-349 -163 l-83 -23 3 -118 c2 -64 0 -117 -3 -117 -18 0 -249 85 -297 109 l-55
28 55 31 c30 17 62 40 72 50 16 19 14 20 -71 41 -198 50 -357 136 -572 309
l-24 20 34 6 c104 21 139 30 139 35 0 4 -40 35 -89 69 -151 106 -269 238 -365
406 l-28 48 32 -7 c51 -11 140 -22 144 -17 3 2 -20 42 -50 88 -104 159 -174
335 -199 504 -22 141 -23 138 38 87 29 -25 91 -70 138 -100z m1420 77 c11 -26
17 -49 15 -52 -3 -3 -10 7 -16 22 -5 14 -14 37 -20 51 -17 45 0 26 21 -21z
m609 -66 c0 -5 -2 -8 -4 -8 -8 0 -66 100 -66 113 0 12 69 -92 70 -105z m-920
-45 c-6 -21 -14 -44 -16 -52 -2 -8 -7 -12 -9 -9 -3 2 2 28 11 57 8 29 18 51
21 48 3 -3 0 -23 -7 -44z m224 -7 c5 -33 4 -46 -3 -41 -6 3 -11 27 -11 52 0
57 5 53 14 -11z m1031 23 c32 -14 44 -24 37 -31 -14 -14 -102 20 -102 38 0 19
9 18 65 -7z m-878 -71 c18 -45 30 -84 28 -86 -3 -3 -12 12 -20 32 -40 95 -54
136 -47 136 4 0 22 -37 39 -82z m186 7 c-15 -41 -30 -75 -33 -75 -4 0 5 34 19
75 14 41 29 75 33 75 4 0 -5 -34 -19 -75z m-195 -96 c-7 -5 -23 -9 -35 -9 -22
0 -23 4 -23 73 0 41 3 77 7 81 4 3 20 -26 36 -65 22 -57 25 -74 15 -80z m622
66 c-1 -5 -12 8 -25 30 -14 22 -25 45 -25 50 1 6 12 -8 25 -30 14 -22 25 -44
25 -50z m-27 -8 c-8 -13 -23 3 -23 26 0 20 0 20 14 2 8 -11 12 -23 9 -28z
m-843 -28 l0 -52 -72 8 c-40 3 -74 8 -75 9 -1 1 3 18 9 39 11 35 12 36 67 40
31 2 59 4 64 5 4 1 7 -21 7 -49z m84 39 c3 -7 7 -32 10 -56 6 -43 6 -43 -21
-40 -25 3 -28 8 -31 42 -2 21 -1 44 2 52 7 17 35 18 40 2z m35 -47 c4 -28 4
-51 0 -51 -5 0 -9 8 -9 18 0 9 -3 35 -7 57 -3 22 -3 37 1 34 4 -4 10 -30 15
-58z m55 9 c4 -27 10 -51 14 -54 5 -3 25 -1 45 3 35 8 37 8 48 -26 6 -19 8
-37 5 -40 -9 -9 -136 8 -136 19 0 6 21 7 55 3 47 -6 55 -5 55 9 0 12 -11 16
-47 16 -27 0 -54 4 -61 8 -7 5 -15 32 -19 60 -5 47 -4 52 14 52 17 0 22 -9 27
-50z m-554 32 c0 -13 -12 -22 -22 -16 -10 6 -1 24 13 24 5 0 9 -4 9 -8z m201
-29 c-5 -20 -15 -29 -33 -31 -22 -3 -26 0 -21 17 4 17 1 21 -17 21 -17 0 -20
-4 -15 -20 8 -26 -16 -27 -40 0 -14 16 -15 21 -4 24 22 8 60 13 101 15 35 1
36 0 29 -26z m24 -13 c-4 -17 -9 -29 -12 -26 -3 2 -2 19 2 36 4 17 9 29 12 26
3 -2 2 -19 -2 -36z m1025 3 c0 -17 -19 -35 -29 -29 -18 12 -12 36 9 36 11 0
20 -3 20 -7z m-50 -13 c0 -11 -14 -11 -50 0 -22 7 -21 8 13 9 20 1 37 -3 37
-9z m-250 -20 c0 -27 -29 -38 -45 -17 -20 27 -35 20 -35 -17 0 -35 -15 -46
-67 -46 -27 0 -29 14 -8 64 l15 36 70 0 c64 0 70 -2 70 -20z m94 14 c30 -12
18 -34 -19 -34 -28 0 -35 4 -35 20 0 20 22 26 54 14z m-290 -26 c-4 -13 -11
-34 -17 -48 -9 -25 -10 -25 -27 15 -22 47 -19 55 21 55 27 0 30 -3 23 -22z
m19 -24 c-8 -25 -17 -43 -20 -41 -7 7 19 87 28 87 4 0 1 -20 -8 -46z m377 36
c11 -7 4 -10 -27 -10 -24 0 -43 5 -43 10 0 13 50 13 70 0z m-460 -36 c17 -49
7 -53 -13 -4 -8 22 -12 40 -7 40 5 0 14 -16 20 -36z m-311 -10 c2 -2 2 -7 -2
-10 -10 -10 -77 6 -77 18 0 9 68 3 79 -8z m801 7 c0 -5 -16 -11 -35 -13 -34
-4 -48 5 -22 15 21 9 57 7 57 -2z m-716 -7 c25 -9 19 -24 -9 -24 -16 0 -25 6
-25 15 0 16 9 19 34 9z m621 -4 c-3 -5 -20 -10 -36 -10 -18 0 -28 4 -24 10 3
6 20 10 36 10 18 0 28 -4 24 -10z m-90 -10 c-3 -5 -22 -10 -41 -10 -21 0 -33
4 -29 10 3 6 22 10 41 10 21 0 33 -4 29 -10z m-833 -239 c174 -67 243 -66 420
6 80 33 104 38 173 38 71 0 93 -5 195 -44 105 -41 122 -45 205 -45 82 0 99 4
200 43 154 60 218 64 345 22 52 -18 99 -36 104 -41 7 -7 -3 -29 -39 -87 -1 -2
-28 7 -61 19 -45 17 -81 22 -149 22 -83 0 -98 -3 -200 -44 -102 -41 -117 -44
-200 -44 -83 0 -98 3 -200 44 -102 41 -116 44 -200 44 -83 0 -98 -4 -195 -45
-98 -41 -111 -44 -195 -43 -83 0 -99 3 -200 44 -102 41 -117 44 -200 44 -68 0
-104 -5 -149 -22 -33 -12 -60 -21 -61 -19 -36 58 -46 80 -39 87 5 5 50 23 99
40 124 42 198 38 347 -19z m-21 -223 c167 -68 252 -73 384 -23 215 81 254 83
430 14 101 -40 117 -44 200 -43 82 0 100 4 200 43 124 48 206 60 284 41 28 -6
51 -15 51 -19 0 -3 -13 -23 -30 -42 -29 -35 -32 -37 -112 -41 -67 -4 -104 -13
-193 -49 -101 -40 -117 -43 -200 -43 -123 0 -194 27 -227 87 -16 28 -37 49
-68 65 -39 20 -54 23 -115 18 -83 -8 -152 -38 -180 -81 -11 -17 -40 -44 -65
-60 -42 -28 -52 -30 -135 -30 -82 1 -99 4 -200 44 -89 36 -126 45 -193 49 -78
4 -83 6 -112 39 -17 18 -30 38 -30 42 0 17 75 30 150 27 58 -2 95 -11 161 -38z
m3 -232 c118 -47 177 -60 256 -53 41 3 71 2 78 -5 13 -13 32 -2 32 18 0 19 40
18 68 -2 27 -19 28 -55 2 -79 -29 -26 -137 -31 -225 -11 -80 19 -207 78 -280
130 -63 46 -40 46 69 2z m1336 30 c0 -7 -108 -75 -166 -104 -84 -42 -193 -74
-230 -67 -17 3 -40 15 -52 28 -20 21 -46 76 -39 83 1 2 27 -3 57 -11 104 -28
182 -17 330 43 69 29 100 37 100 28z m-570 -1126 l0 -310 -45 -29 c-93 -59
-99 -59 -182 -17 l-73 38 0 314 0 314 150 0 150 0 0 -310z"/>
<path d="M2215 3570 c-3 -5 -2 -18 3 -27 5 -10 12 -33 15 -50 6 -30 4 -33 -18
-33 -15 0 -25 6 -25 14 0 8 -9 21 -21 29 -24 17 -68 14 -183 -15 -43 -10 -80
-17 -83 -14 -3 2 14 17 36 32 23 14 41 33 41 40 0 23 -15 16 -59 -26 -27 -27
-41 -49 -41 -66 0 -20 4 -25 16 -20 90 35 246 57 259 36 6 -10 1 -11 -101 -30
-34 -6 -92 -21 -129 -33 l-68 -23 -24 24 c-19 19 -27 21 -38 12 -17 -14 -20
-57 -6 -79 6 -9 18 -11 35 -7 14 3 26 2 26 -2 0 -21 -43 -61 -72 -68 -36 -7
-68 -25 -68 -36 0 -14 24 -8 50 12 14 11 37 20 52 20 31 0 58 32 58 67 0 28
15 35 150 70 52 13 123 24 158 24 71 0 89 17 77 70 -4 18 -2 36 5 44 10 12 10
18 0 30 -14 17 -36 20 -45 5z m-387 -192 c-6 -18 -28 -21 -28 -4 0 9 7 16 16
16 9 0 14 -5 12 -12z"/>
<path d="M2313 3563 c-14 -24 -16 -87 -3 -118 7 -19 8 -18 14 6 4 14 6 50 4
80 -3 49 -4 52 -15 32z"/>
<path d="M2424 3558 c-9 -14 2 -21 37 -25 20 -2 29 1 27 9 -6 16 -56 29 -64
16z"/>
<path d="M2486 3508 c-4 -9 -20 -21 -36 -27 -16 -5 -33 -19 -39 -30 -9 -17 -8
-22 9 -31 12 -6 29 -8 39 -5 13 4 20 0 23 -13 3 -11 22 -23 49 -31 43 -13 147
-63 202 -98 28 -18 28 -18 52 12 13 17 33 39 44 51 18 19 20 64 2 64 -9 0 -33
-17 -30 -21 5 -8 -26 -79 -34 -79 -5 0 -35 14 -65 32 -31 17 -87 44 -126 59
l-71 27 -5 54 c-4 36 -8 48 -14 36z m-6 -53 c0 -8 -6 -15 -14 -15 -20 0 -29
17 -14 23 22 9 28 7 28 -8z"/>
<path d="M1700 3364 c0 -9 8 -22 17 -29 15 -11 14 -14 -11 -31 -28 -17 -29
-17 -42 1 -17 24 -29 13 -15 -13 9 -18 1 -29 -69 -92 -80 -72 -81 -73 -102
-54 l-22 19 15 -24 c32 -51 42 -49 123 25 41 38 76 74 76 80 0 6 12 14 28 18
15 3 35 12 46 20 17 14 17 19 6 46 -15 37 -50 60 -50 34z"/>
<path d="M1533 3281 c-24 -20 -30 -41 -13 -41 6 0 19 9 30 20 37 37 22 54 -17
21z"/>
<path d="M2850 3283 c-20 -7 -50 -34 -50 -44 0 -5 12 -15 28 -23 27 -15 26
-15 -28 -16 -32 0 -62 5 -69 13 -11 10 -11 8 -2 -11 21 -39 54 -48 98 -25 76
40 96 133 23 106z m7 -39 c-9 -9 -28 6 -21 18 4 6 10 6 17 -1 6 -6 8 -13 4
-17z"/>
<path d="M2967 3213 c-4 -3 -7 -21 -7 -40 0 -39 -6 -41 -37 -11 -18 17 -26 19
-35 10 -10 -10 -5 -19 20 -45 l33 -32 25 28 c32 38 33 123 1 90z"/>
<path d="M2123 1700 c-32 -13 -30 -46 4 -54 21 -6 31 -1 55 24 15 17 28 33 28
36 0 7 -64 3 -87 -6z"/>
</g>
</svg>
